<svg xmlns="http://www.w3.org/2000/svg" version="1.1" xmlns:xlink="http://www.w3.org/1999/xlink" width="512" height="512" x="0" y="0" viewBox="0 0 511 512" style="enable-background:new 0 0 512 512" xml:space="preserve" class=""><g><path fill="#ff491f" d="M390.3 512H.5l39.57-380.91H350.72l6.605 63.57zm0 0" opacity="1" data-original="#ff491f" class=""></path><path fill="#ed3618" d="M200.691 254.254h215.934L444.137 512H173.18zm0 0" opacity="1" data-original="#ed3618" class=""></path><path fill="#ffe14d" d="M222.3 254.254h215.934L465.746 512H194.793zm0 0" opacity="1" data-original="#ffe14d" class=""></path><path fill="#ed3618" d="M357.324 194.66c-27.867-8.922-48.699-33.61-51.969-63.57h45.364zm0 0" opacity="1" data-original="#ed3618" class=""></path><path fill="#32cc77" d="M471.25 122.793c0 41.672-33.781 75.457-75.453 75.457s-75.453-33.785-75.453-75.457 33.781-75.453 75.453-75.453 75.453 33.781 75.453 75.453zm0 0" opacity="1" data-original="#32cc77" class=""></path><path fill="#e5e5e5" d="M389.793 169.176a7.72 7.72 0 0 1-6.746-3.969l-20.582-37.05a7.718 7.718 0 0 1 2.996-10.497 7.723 7.723 0 0 1 10.5 3l13.379 24.082 29.531-60.758a7.716 7.716 0 0 1 10.316-3.566 7.713 7.713 0 0 1 3.567 10.316l-36.02 74.098a7.712 7.712 0 0 1-6.73 4.34c-.07.004-.14.004-.211.004zm0 0" opacity="1" data-original="#e5e5e5" class=""></path><g fill="#3c3f4d"><path d="M279.203 176.066a7.718 7.718 0 0 1-7.719-7.718v-76.82c0-41.958-34.132-76.09-76.09-76.09s-76.09 34.132-76.09 76.09v76.82a7.72 7.72 0 0 1-7.718 7.718 7.72 7.72 0 0 1-7.719-7.718v-76.82C103.867 41.057 144.926 0 195.395 0s91.527 41.059 91.527 91.527v76.82a7.72 7.72 0 0 1-7.719 7.72zM330.27 409.078c-31.856 0-57.77-25.914-57.77-57.77v-50.054a7.717 7.717 0 1 1 15.434 0v50.055c0 23.34 18.992 42.332 42.336 42.332s42.332-18.993 42.332-42.332v-50.055a7.72 7.72 0 0 1 7.718-7.719 7.718 7.718 0 0 1 7.72 7.719v50.055c0 31.855-25.915 57.77-57.77 57.77zm0 0" fill="#3c3f4d" opacity="1" data-original="#3c3f4d" class=""></path></g></g></svg>